<svg xmlns="http://www.w3.org/2000/svg" xmlns:xlink="http://www.w3.org/1999/xlink" viewBox="0 0 264 234"
     class="design-iconfont">
    <defs>
        <linearGradient x1="0%" y1="53.1173608%" x2="100%" y2="46.771769%" id="octruxwh7b">
            <stop stop-color="#2E3D5E" offset="0%"/>
            <stop stop-color="#0F1626" offset="36.06089%"/>
            <stop stop-color="#243049" offset="73.3477604%"/>
            <stop stop-color="#5C77B4" offset="100%"/>
        </linearGradient>
        <linearGradient x1="0%" y1="55.5342166%" x2="102.654255%" y2="44.4657834%" id="9lfzib4e4a">
            <stop stop-color="#4EE8E8" stop-opacity=".47573404" offset="0%"/>
            <stop stop-color="#3281D8" stop-opacity=".60988398" offset="22.9513632%"/>
            <stop stop-color="#69B4FF" stop-opacity=".40438992" offset="47.0984382%"/>
            <stop stop-color="#2B6CD5" stop-opacity=".47474276" offset="74.1153202%"/>
            <stop stop-color="#56A1FF" stop-opacity="0" offset="100%"/>
        </linearGradient>
        <linearGradient x1="0%" y1="100%" x2="102.654255%" y2="0%" id="1hoe1fhd9c">
            <stop stop-color="#D7FFFF" offset="0%"/>
            <stop stop-color="#75B6FF" offset="22.7937333%"/>
            <stop stop-color="#58ABFF" offset="49.8845142%"/>
            <stop stop-color="#438BFF" offset="74.2540102%"/>
            <stop stop-color="#86BCFF" offset="100%"/>
        </linearGradient>
        <linearGradient x1="45.3652169%" y1="7.16458618%" x2="58.7310401%" y2="100%" id="3959dgczud">
            <stop stop-color="#2E3D5E" offset="0%"/>
            <stop stop-color="#0F1626" offset="36.06089%"/>
            <stop stop-color="#354569" offset="100%"/>
        </linearGradient>
        <linearGradient x1="50%" y1="0%" x2="50%" y2="100%" id="n00a6yh0ag">
            <stop stop-color="#0D52B7" offset="0%"/>
            <stop stop-color="#0D52B7" stop-opacity="0" offset="100%"/>
        </linearGradient>
        <linearGradient x1="50%" y1="0%" x2="50%" y2="100%" id="8m36hvx22h">
            <stop stop-color="#A9CCFF" offset="0%"/>
            <stop stop-color="#0D52B7" stop-opacity="0" offset="100%"/>
        </linearGradient>
        <linearGradient x1="0%" y1="100%" x2="102.654255%" y2="0%" id="ulq931s4wi">
            <stop stop-color="#4EE8E8" offset="0%"/>
            <stop stop-color="#3281D8" offset="22.7937333%"/>
            <stop stop-color="#69B4FF" offset="49.8845142%"/>
            <stop stop-color="#2B6CD5" offset="74.2540102%"/>
            <stop stop-color="#56A1FF" offset="100%"/>
        </linearGradient>
        <linearGradient x1="45.3652169%" y1="7.16458618%" x2="50%" y2="100%" id="rdmg56h93j">
            <stop stop-color="#2E3D5E" offset="0%"/>
            <stop stop-color="#0F1626" offset="43.7574489%"/>
            <stop stop-color="#354569" offset="100%"/>
        </linearGradient>
        <linearGradient x1="50%" y1="0%" x2="50%" y2="100%" id="l2eo3dw87m">
            <stop stop-color="#59E9FF" offset="0%"/>
            <stop stop-color="#0872FF" offset="50.1617166%"/>
            <stop stop-color="#432CFF" stop-opacity=".99549023" offset="100%"/>
        </linearGradient>
        <linearGradient x1="50%" y1="0%" x2="40.7722526%" y2="124.775648%" id="mlja53ac0l">
            <stop stop-color="#CBEAFF" offset="0%"/>
            <stop stop-color="#3159CF" offset="100%"/>
        </linearGradient>
        <linearGradient x1="50%" y1="0%" x2="40.8761128%" y2="123.371272%" id="m0kk211ben">
            <stop stop-color="#B4F4FF" offset="0%"/>
            <stop stop-color="#6573FF" offset="57.7558409%"/>
            <stop stop-color="#FFF5B1" offset="100%"/>
        </linearGradient>
        <linearGradient x1="0%" y1="50%" x2="100%" y2="50%" id="px69sa4slo">
            <stop stop-color="#9DEBFF" offset="0%"/>
            <stop stop-color="#002F75" offset="100%"/>
        </linearGradient>
        <linearGradient x1="0%" y1="50%" x2="100%" y2="50%" id="p92gbuasnp">
            <stop stop-color="#9DEBFF" offset="0%"/>
            <stop stop-color="#002F75" stop-opacity=".14950711" offset="100%"/>
        </linearGradient>
        <linearGradient x1="0%" y1="50%" x2="100%" y2="50%" id="d0edxvu0qq">
            <stop stop-color="#9DEBFF" offset="0%"/>
            <stop stop-color="#002F75" offset="100%"/>
        </linearGradient>
        <filter x="-5.4%" y="-5.4%" width="110.9%" height="110.9%" filterUnits="objectBoundingBox" id="pltbtus4yf">
            <feGaussianBlur stdDeviation="8" in="SourceAlpha" result="shadowBlurInner1"/>
            <feOffset dy="1" in="shadowBlurInner1" result="shadowOffsetInner1"/>
            <feComposite in="shadowOffsetInner1" in2="SourceAlpha" operator="arithmetic" k2="-1" k3="1"
                         result="shadowInnerInner1"/>
            <feColorMatrix values="0 0 0 0 0.510278916 0 0 0 0 0.982913673 0 0 0 0 1 0 0 0 1 0" in="shadowInnerInner1"/>
        </filter>
        <filter x="-6.4%" y="-9.4%" width="112.8%" height="126.4%" filterUnits="objectBoundingBox" id="ptl02fm6er">
            <feOffset dy="2" in="SourceAlpha" result="shadowOffsetOuter1"/>
            <feGaussianBlur stdDeviation="2" in="shadowOffsetOuter1" result="shadowBlurOuter1"/>
            <feColorMatrix values="0 0 0 0 0 0 0 0 0 0 0 0 0 0 0 0 0 0 0.5 0" in="shadowBlurOuter1"/>
        </filter>
        <filter x="-5.6%" y="-5.7%" width="111.2%" height="111.3%" filterUnits="objectBoundingBox" id="vkfid5jyst">
            <feGaussianBlur stdDeviation="1" in="SourceGraphic"/>
        </filter>
        <text id="cfqpm834vs" font-family="PangMenZhengDao" font-size="46" font-weight="normal"
              letter-spacing="10.2222222" fill="#FFF">
            <tspan x="80" y="163"></tspan>
        </text>
        <rect id="qzaew18w8k" x="38" y="22" width="96" height="96" rx="8"/>
        <path d="M88.9568749,71.9393095 L189.204242,45.755085 C190.272957,45.4759407 191.365613,46.1160144 191.644757,47.1847297 C191.730058,47.5113077 191.731319,47.8541623 191.648421,48.1813587 L166.116566,148.955754 C164.674237,154.648637 160.229045,159.093829 154.536162,160.536158 L53.7617667,186.068013 C52.6910279,186.339292 51.6031077,185.691201 51.331829,184.620463 C51.2489317,184.293266 51.2501921,183.950412 51.3354931,183.623834 L77.5197176,83.3764669 C78.9825651,77.7758959 83.3563039,73.402157 88.9568749,71.9393095 Z"
              id="b8kb86lk9e"/>
    </defs>
    <g fill="none" fill-rule="evenodd">
        <path d="M11.411975,176.746635 L135.104076,144.438736 L121.465778,130.800437 L0.411621096,161.470303 C-0.659117732,161.741582 -1.3072082,162.829502 -1.03592949,163.900241 C-0.94742996,164.249549 -0.766201169,164.568458 -0.511398901,164.823261 L11.411975,176.746635 L11.411975,176.746635 Z"
              stroke="url(#9lfzib4e4a)" stroke-width="2" fill="url(#octruxwh7b)"
              transform="rotate(45 40.21834697 176.7608278)"/>
        <path d="M122.391878,176.446197 L246.083979,144.138299 L232.445681,130.5 L111.391524,161.169866 C110.320785,161.441144 109.672695,162.529065 109.943974,163.599803 C110.032473,163.949112 110.213702,164.268021 110.468504,164.522823 L122.391878,176.446197 L122.391878,176.446197 Z"
              stroke="url(#9lfzib4e4a)" stroke-width="2" fill="url(#octruxwh7b)"
              transform="scale(-1 1) rotate(45 -34.52164803 -271.90710574)"/>
        <path d="M84.8563017,62.9392414 L196.204242,33.8555901 C197.272957,33.5764458 198.365613,34.2165195 198.644757,35.2852347 C198.730058,35.6118128 198.731319,35.9546673 198.648421,36.2818637 L170.286572,148.226264 C168.844243,153.919147 164.39905,158.36434 158.706167,159.806669 L46.7617667,188.168518 C45.6910279,188.439797 44.6031077,187.791707 44.331829,186.720968 C44.2489317,186.393771 44.2501921,186.050917 44.3354931,185.724339 L73.4191444,74.3763987 C74.8819919,68.7758277 79.2557307,64.4020889 84.8563017,62.9392414 Z"
              stroke="url(#1hoe1fhd9c)" stroke-width="2" fill="#182138" transform="rotate(45 95.64621197 133.9872918)"/>
        <g transform="rotate(45 95.64621197 138.8867868)">
            <use fill="url(#3959dgczud)" xlink:href="#b8kb86lk9e"/>
            <use fill="#000" filter="url(#pltbtus4yf)" xlink:href="#b8kb86lk9e"/>
        </g>
        <path fill="url(#n00a6yh0ag)" opacity=".30000001" style="mix-blend-mode:normal"
              d="M25.0382398 2.01333866L0.624971071 35.7946068 97.4009519 40.5629938 95.4638335 0.424467232z"
              transform="rotate(30 -270.1809784 108.0242854)"/>
        <path fill="url(#8m36hvx22h)" style="mix-blend-mode:normal"
              d="M27.4347271 2.01333866L4.91687783 25.6382591 92.3251763 30.4066461 93.0508884 0.424467232z"
              transform="rotate(30 -270.1809784 108.0242854)"/>
        <path fill="#FFF" d="M24.2368385 0H96.0228072V3.62726704H24.2368385z"
              transform="rotate(30 -270.1809784 108.0242854)"/>
        <g>
            <path fill="url(#n00a6yh0ag)" opacity=".30000001" style="mix-blend-mode:normal"
                  d="M25.0382398 2.01333866L0.624971071 35.7946068 97.4009519 40.5629938 95.4638335 0.424467232z"
                  transform="scale(-1 1) rotate(30 -396.75921054 -385.39489952)"/>
            <path fill="url(#8m36hvx22h)" style="mix-blend-mode:normal"
                  d="M27.4347271 2.01333866L4.91687783 25.6382591 92.3251763 30.4066461 93.0508884 0.424467232z"
                  transform="scale(-1 1) rotate(30 -396.75921054 -385.39489952)"/>
            <path fill="#FFF" d="M24.2368385 0H96.0228072V3.62726704H24.2368385z"
                  transform="scale(-1 1) rotate(30 -396.75921054 -385.39489952)"/>
        </g>
        <g transform="translate(45 -2)">
            <rect stroke="url(#ulq931s4wi)" stroke-width="2" fill="#182138" opacity=".78997228"
                  transform="scale(-1 1) rotate(45 0 -96.16652224)" x="20" y="20" width="96" height="96" rx="8"/>
            <g transform="scale(-1 1) rotate(45 0 -137.62236636)">
                <use fill="url(#rdmg56h93j)" xlink:href="#qzaew18w8k"/>
                <use stroke="url(#mlja53ac0l)" stroke-width="2" fill="url(#l2eo3dw87m)" xlink:href="#qzaew18w8k"/>
            </g>
            <rect stroke="url(#m0kk211ben)" stroke-width="2" transform="scale(-1 1) rotate(45 0 -140.45079349)" x="44"
                  y="28" width="88" height="88" rx="8"/>
        </g>
        <g transform="rotate(90 95 142)" fill="url(#px69sa4slo)">
            <path d="M4.49307159,0.249615088 L81,4.5 L81,4.5 L4.49307159,8.75038491 C2.14564882,8.88079729 0.136966559,7.08355526 0.00655418263,4.7361325 C0.00218556879,4.65749745 9.6448658e-18,4.57875631 0,4.5 C-2.87919672e-16,2.14895746 1.90589655,0.243060906 4.25693909,0.243060906 C4.3356954,0.243060906 4.41443654,0.245246474 4.49307159,0.249615088 Z"/>
            <path d="M4.49307159,0.249615088 L81,4.5 L81,4.5 L4.49307159,8.75038491 C2.14564882,8.88079729 0.136966559,7.08355526 0.00655418263,4.7361325 C0.00218556879,4.65749745 9.6448658e-18,4.57875631 0,4.5 C-2.87919672e-16,2.14895746 1.90589655,0.243060906 4.25693909,0.243060906 C4.3356954,0.243060906 4.41443654,0.245246474 4.49307159,0.249615088 Z"
                  style="mix-blend-mode:screen"/>
        </g>
        <g transform="rotate(90 5.5 31.5)" fill="url(#px69sa4slo)">
            <path d="M4.49307159,0.249615088 L81,4.5 L81,4.5 L4.49307159,8.75038491 C2.14564882,8.88079729 0.136966559,7.08355526 0.00655418263,4.7361325 C0.00218556879,4.65749745 9.6448658e-18,4.57875631 0,4.5 C-2.87919672e-16,2.14895746 1.90589655,0.243060906 4.25693909,0.243060906 C4.3356954,0.243060906 4.41443654,0.245246474 4.49307159,0.249615088 Z"/>
            <path d="M4.49307159,0.249615088 L81,4.5 L81,4.5 L4.49307159,8.75038491 C2.14564882,8.88079729 0.136966559,7.08355526 0.00655418263,4.7361325 C0.00218556879,4.65749745 9.6448658e-18,4.57875631 0,4.5 C-2.87919672e-16,2.14895746 1.90589655,0.243060906 4.25693909,0.243060906 C4.3356954,0.243060906 4.41443654,0.245246474 4.49307159,0.249615088 Z"
                  style="mix-blend-mode:screen"/>
        </g>
        <g opacity=".80000001">
            <path d="M4.88415136,0.394765594 L51.5,4.5 L51.5,4.5 L4.88415136,8.60523441 C2.616893,8.80490098 0.617055211,7.12878668 0.417388632,4.86152832 C0.40680155,4.74130965 0.401500345,4.62068395 0.401500345,4.5 C0.401500345,2.22396678 2.24658982,0.378877306 4.52262304,0.378877306 C4.64330699,0.378877306 4.76393269,0.384178512 4.88415136,0.394765594 Z"
                  fill="url(#p92gbuasnp)" transform="matrix(0 1 1 0 55 113)"/>
            <path d="M4.88415136,0.394765594 L51.5,4.5 L51.5,4.5 L4.88415136,8.60523441 C2.616893,8.80490098 0.617055211,7.12878668 0.417388632,4.86152832 C0.40680155,4.74130965 0.401500345,4.62068395 0.401500345,4.5 C0.401500345,2.22396678 2.24658982,0.378877306 4.52262304,0.378877306 C4.64330699,0.378877306 4.76393269,0.384178512 4.88415136,0.394765594 Z"
                  fill="url(#d0edxvu0qq)" style="mix-blend-mode:screen" transform="matrix(0 1 1 0 55 113)"/>
        </g>
        <g opacity=".80000001">
            <path d="M4.88415136,0.394765594 L51.5,4.5 L51.5,4.5 L4.88415136,8.60523441 C2.616893,8.80490098 0.617055211,7.12878668 0.417388632,4.86152832 C0.40680155,4.74130965 0.401500345,4.62068395 0.401500345,4.5 C0.401500345,2.22396678 2.24658982,0.378877306 4.52262304,0.378877306 C4.64330699,0.378877306 4.76393269,0.384178512 4.88415136,0.394765594 Z"
                  fill="url(#p92gbuasnp)" transform="matrix(0 1 1 0 181.5 117.5)"/>
            <path d="M4.88415136,0.394765594 L51.5,4.5 L51.5,4.5 L4.88415136,8.60523441 C2.616893,8.80490098 0.617055211,7.12878668 0.417388632,4.86152832 C0.40680155,4.74130965 0.401500345,4.62068395 0.401500345,4.5 C0.401500345,2.22396678 2.24658982,0.378877306 4.52262304,0.378877306 C4.64330699,0.378877306 4.76393269,0.384178512 4.88415136,0.394765594 Z"
                  fill="url(#d0edxvu0qq)" style="mix-blend-mode:screen" transform="matrix(0 1 1 0 181.5 117.5)"/>
        </g>
        <g fill="#FFF" transform="translate(-3 -2)">
            <use filter="url(#ptl02fm6er)" xlink:href="#cfqpm834vs"/>
            <use xlink:href="#cfqpm834vs"/>
        </g>
        <!-- <g fill="#FFF">
          <path d="M37.9771952,23.1471618 C41.4385405,7.2926277 21.7349502,0.329367551 20.8262247,0.0181107187 C20.8064522,0.00519693859 20.7830545,-0.00103731484 20.7594721,0.000140808128 L17.3773399,0.000140808128 C17.2698414,0.0102516091 17.1815473,0.0893783735 17.1600206,0.195080218 C17.1384938,0.300782063 17.1888189,0.408093095 17.2838862,0.459206088 C20.6250768,2.10619942 30.5738858,8.13213188 26.3462204,20.3342893 C21.6147955,33.5724874 3.38332271,49.7276067 0.0901940127,52.5698263 C0.0128892788,52.632074 -0.0185414158,52.7351727 0.0109045636,52.8299111 C0.0403505431,52.9246494 0.124703309,52.99182 0.223699236,52.9994926 L18.3626083,52.9994926 C18.4139794,53.0014145 18.4633621,52.979375 18.4961136,52.9397773 C19.556145,52.0371325 34.5674719,38.9910243 37.9771952,23.1471618 L37.9771952,23.1471618 Z M52.9796217,32.4252836 C53.3103733,30.22042 53.4751951,27.9938793 53.4729544,25.7643873 C53.4729544,8.21750523 27.7008535,0.0145534629 27.7008534,0.0145534629 L24.4326457,0.0145534629 C24.3225768,0.0283707683 24.2346416,0.112748057 24.2163708,0.222077546 C24.1981001,0.331407036 24.2538281,0.43975345 24.3534326,0.488553166 C28.686122,2.31251828 43.0156822,9.53901277 40.1542203,24.4508834 C37.3212396,39.065726 26.5874199,50.2896477 24.2742195,52.5698263 C24.2035429,52.6370845 24.1784821,52.7392794 24.2100343,52.8315657 C24.2415865,52.9238519 24.3239864,52.9893667 24.4210752,52.9993608 L40.1613405,52.9993608 C42.9035689,52.9993608 46.0131657,52.8195723 46.0131657,53 C46.0131657,53 52.9796217,38.1511956 52.9796217,32.4252836 Z" filter="url(#vkfid5jyst)" transform="translate(101 37)" opacity=".38321246"/>
          <path d="M37.9771952,23.1471618 C41.4385405,7.2926277 21.7349502,0.329367551 20.8262247,0.0181107187 C20.8064522,0.00519693859 20.7830545,-0.00103731484 20.7594721,0.000140808128 L17.3773399,0.000140808128 C17.2698414,0.0102516091 17.1815473,0.0893783735 17.1600206,0.195080218 C17.1384938,0.300782063 17.1888189,0.408093095 17.2838862,0.459206088 C20.6250768,2.10619942 30.5738858,8.13213188 26.3462204,20.3342893 C21.6147955,33.5724874 3.38332271,49.7276067 0.0901940127,52.5698263 C0.0128892788,52.632074 -0.0185414158,52.7351727 0.0109045636,52.8299111 C0.0403505431,52.9246494 0.124703309,52.99182 0.223699236,52.9994926 L18.3626083,52.9994926 C18.4139794,53.0014145 18.4633621,52.979375 18.4961136,52.9397773 C19.556145,52.0371325 34.5674719,38.9910243 37.9771952,23.1471618 L37.9771952,23.1471618 Z M52.9796217,32.4252836 C53.3103733,30.22042 53.4751951,27.9938793 53.4729544,25.7643873 C53.4729544,8.21750523 27.7008535,0.0145534629 27.7008534,0.0145534629 L24.4326457,0.0145534629 C24.3225768,0.0283707683 24.2346416,0.112748057 24.2163708,0.222077546 C24.1981001,0.331407036 24.2538281,0.43975345 24.3534326,0.488553166 C28.686122,2.31251828 43.0156822,9.53901277 40.1542203,24.4508834 C37.3212396,39.065726 26.5874199,50.2896477 24.2742195,52.5698263 C24.2035429,52.6370845 24.1784821,52.7392794 24.2100343,52.8315657 C24.2415865,52.9238519 24.3239864,52.9893667 24.4210752,52.9993608 L40.1613405,52.9993608 C42.9035689,52.9993608 46.0131657,52.8195723 46.0131657,53 C46.0131657,53 52.9796217,38.1511956 52.9796217,32.4252836 Z" transform="translate(108.072464 37)"/>
        </g> -->
    </g>
</svg>
