<?xml version="1.0" standalone="no"?><!DOCTYPE svg PUBLIC "-//W3C//DTD SVG 1.1//EN" "http://www.w3.org/Graphics/SVG/1.1/DTD/svg11.dtd"><svg t="1647353162956" class="icon" viewBox="0 0 1024 1024" version="1.1" xmlns="http://www.w3.org/2000/svg" p-id="1481" id="mx_n_1647353162957" xmlns:xlink="http://www.w3.org/1999/xlink" width="200" height="200"><defs><style type="text/css"></style></defs><path d="M512 404.629126m-381.431715 0a381.431715 381.431715 0 1 0 762.86343 0 381.431715 381.431715 0 1 0-762.86343 0Z" fill="#FFFFFF" p-id="1482"></path><path d="M512 0C293.281553 0 114.330097 188.893204 114.330097 420.867314c0 258.485437 377.786408 603.132686 397.669903 603.132686s397.669903-347.961165 397.669903-603.132686C909.669903 188.893204 730.718447 0 512 0z m0 768.828479c-182.265372 0-328.07767-155.754045-328.07767-347.961165S329.734628 72.906149 512 72.906149s328.07767 155.754045 328.07767 347.961165-145.812298 347.961165-328.07767 347.961165z" fill="#1296db" p-id="1483" data-spm-anchor-id="a313x.7781069.0.i1" class="selected"></path><path d="M531.883495 198.834951l6.627832 79.533981a7.290615 7.290615 0 0 1-6.627832 6.627832h-39.76699a7.290615 7.290615 0 0 1-6.627832-6.627832l6.627832-79.533981H409.268608L280.02589 596.504854h169.009709l9.941747-79.53398a14.249838 14.249838 0 0 1 13.255664-13.255664h76.220064a14.249838 14.249838 0 0 1 13.255664 13.255664l9.941747 79.53398H743.97411L601.475728 198.834951zM478.860841 311.508091h66.278318v13.255663h-66.278318z m-9.941747 119.30097l6.627832-66.278317a14.249838 14.249838 0 0 1 13.255663-13.255663h46.394822a14.249838 14.249838 0 0 1 13.255663 13.255663l6.627832 66.278317a7.290615 7.290615 0 0 1-6.627832 6.627832h-72.906148c-6.627832 0-6.627832-3.313916-6.627832-6.627832z m-46.394822 139.184467H319.79288L432.466019 225.346278h26.511327z m135.87055-92.789645h-96.10356V463.94822h96.10356z m39.76699 92.789645l-33.139158-344.64725h13.255663l122.614887 344.64725z" fill="#1296db" p-id="1484" data-spm-anchor-id="a313x.7781069.0.i2" class="selected"></path></svg>