<?xml version="1.0" encoding="UTF-8"?>
<svg width="94px" height="66px" viewBox="0 0 94 66" version="1.1" xmlns="http://www.w3.org/2000/svg" xmlns:xlink="http://www.w3.org/1999/xlink">
    <title>切片</title>
    <defs>
        <rect id="path-1" x="21" y="0" width="94" height="65"></rect>
        <linearGradient x1="95.1727247%" y1="50%" x2="4.42270122%" y2="50%" id="linearGradient-3">
            <stop stop-color="#395A66" offset="0%"></stop>
            <stop stop-color="#395A66" stop-opacity="0" offset="100%"></stop>
        </linearGradient>
        <linearGradient x1="2.9228675%" y1="62.8463853%" x2="78.0918159%" y2="62.8463853%" id="linearGradient-4">
            <stop stop-color="#A6C5CB" stop-opacity="0" offset="0%"></stop>
            <stop stop-color="#A6C5CB" offset="100%"></stop>
        </linearGradient>
        <linearGradient x1="93.9877785%" y1="50%" x2="3.61116698%" y2="47.1973668%" id="linearGradient-5">
            <stop stop-color="#D3E0DF" offset="0%"></stop>
            <stop stop-color="#BECECD" stop-opacity="0.2" offset="100%"></stop>
        </linearGradient>
        <linearGradient x1="33.2250456%" y1="62.8463853%" x2="78.0918159%" y2="62.8463853%" id="linearGradient-6">
            <stop stop-color="#F9F9F9" stop-opacity="0" offset="0%"></stop>
            <stop stop-color="#F9F9F9" offset="100%"></stop>
        </linearGradient>
        <polygon id="path-7" points="21.125 2.13162821e-14 96.8711813 2.13162821e-14 113.75 29.8799855 96.8711813 56.4513037 16.8788187 56.4513037 -1.84696008e-12 29.8496642"></polygon>
        <linearGradient x1="4.81260408%" y1="50%" x2="86.1391199%" y2="51.3321589%" id="linearGradient-8">
            <stop stop-color="#EAF4F6" offset="0%"></stop>
            <stop stop-color="#DFF1FF" offset="100%"></stop>
        </linearGradient>
        <path d="M37.1432658,27.0882481 C41.263723,32.1729359 46.440952,35.9149344 52.6749527,38.3142435 C58.9089535,40.7135525 63.6979634,39.513898 67.0419825,34.7152798 C72.8714659,34.0705058 76.6498291,33.7481188 78.3770722,33.7481188 C80.9679367,33.7481188 73.0214975,28.5069018 68.0570666,28.5069018 C64.7474461,28.5069018 61.9863471,28.5069018 59.7737699,28.5069018 C61.0466107,31.1689673 60.0803541,32.9160396 56.875,33.7481188 C52.0669688,34.9962377 47.8995097,26.7889272 55.6741929,23.7216778 C63.4488761,20.6544284 70.9052216,25.6695943 74.432837,27.0882481 C76.7845806,28.0340173 78.7403951,29.0110292 80.3002806,30.0192839 L93.5861717,29.3067659 C89.7237472,28.7180553 86.0558721,27.4815028 82.5825462,25.5971085 C77.3725574,22.7705169 66.516906,18.0590594 64.0403313,17.1527774 C61.5637565,16.2464954 56.0688834,13.9645805 50.8099572,19.8198798 C47.3040064,23.7234127 42.7484426,26.1462021 37.1432658,27.0882481 Z" id="path-9"></path>
        <filter x="-7.1%" y="-8.5%" width="114.2%" height="133.9%" filterUnits="objectBoundingBox" id="filter-10">
            <feOffset dx="0" dy="2" in="SourceAlpha" result="shadowOffsetOuter1"></feOffset>
            <feGaussianBlur stdDeviation="1" in="shadowOffsetOuter1" result="shadowBlurOuter1"></feGaussianBlur>
            <feColorMatrix values="0 0 0 0 0   0 0 0 0 0   0 0 0 0 0  0 0 0 0.1 0" type="matrix" in="shadowBlurOuter1"></feColorMatrix>
        </filter>
        <linearGradient x1="50%" y1="41.2844399%" x2="37.6098377%" y2="55.2914656%" id="linearGradient-11">
            <stop stop-color="#A6BBCD" stop-opacity="0.2" offset="0%"></stop>
            <stop stop-color="#FDFFFF" offset="100%"></stop>
        </linearGradient>
    </defs>
    <g id="已切图" stroke="none" stroke-width="1" fill="none" fill-rule="evenodd">
        <g id="2-城市规划" transform="translate(0.000000, -70.000000)">
            <g id="back" transform="translate(-21.000000, 70.416211)">
                <g id="返回" transform="translate(0.000000, 0.000000)">
                    <g id="编组" transform="translate(0.000000, -0.000000)">
                        <mask id="mask-2" fill="white">
                            <use xlink:href="#path-1"></use>
                        </mask>
                        <use id="矩形" fill="#D8D8D8" opacity="0" xlink:href="#path-1"></use>
                        <path d="M97.391865,8.625 L113.979725,37.989912 L97.4089449,64.0763037 L17.9662231,64.0763037 L1.41429554,37.9898568 L22.196191,8.625 L97.391865,8.625 Z" id="矩形" stroke="url(#linearGradient-4)" fill="url(#linearGradient-3)" opacity="0.300000012" mask="url(#mask-2)"></path>
                        <g id="矩形" opacity="0.800000012" mask="url(#mask-2)">
                            <use fill="url(#linearGradient-5)" xlink:href="#path-7"></use>
                            <path stroke="url(#linearGradient-6)" stroke-width="2" d="M96.2875487,1 L112.584451,29.8498384 L96.3217086,55.4513037 L17.4286274,55.4513037 L1.20359108,29.8800493 L21.6423819,1 L96.2875487,1 Z" stroke-linejoin="square" fill-opacity="0.2" fill="#3B5D64"></path>
                        </g>
                    </g>
                    <g id="路径-121">
                        <use fill="black" fill-opacity="1" filter="url(#filter-10)" xlink:href="#path-9"></use>
                        <use fill="url(#linearGradient-8)" fill-rule="evenodd" xlink:href="#path-9"></use>
                    </g>
                    <path d="M50.8099572,19.8198798 C53.9324446,16.3432958 57.1381126,15.7353977 59.7457822,16.0049557 L60.1524507,16.054519 L60.5485842,16.1169243 L60.9335871,16.1904296 C60.9967935,16.2035087 61.0595114,16.2169778 61.1217282,16.2308004 L61.4889176,16.3176898 L61.8434865,16.4113247 L62.1848392,16.509963 L62.5123796,16.6118631 L63.1236405,16.818481 L64.3173615,17.2566284 L64.8320586,17.4577691 L65.6867219,17.8038679 L67.5741177,18.5948427 L69.5009236,19.424914 L70.5427018,19.8809939 L72.3580369,20.6868922 L73.4771834,21.1907995 L75.0791308,21.9220759 L76.1258902,22.4068917 L77.6675192,23.1325759 L79.1489348,23.8458639 L80.0886482,24.3086418 C80.2414721,24.3846774 80.3922782,24.4601172 80.5408857,24.5348879 L81.4047055,24.9748968 C81.8219802,25.1903005 82.2162189,25.3983638 82.5825462,25.5971085 C85.8515588,27.3706561 89.2929057,28.5703369 92.9065869,29.1961508 L93.5861717,29.3067659 L80.3002806,30.0192839 C78.8603863,29.0885873 77.0831323,28.1845117 74.9685187,27.3070571 L74.2561961,27.01563 L73.8842913,26.854231 L73.4881919,26.6733396 L71.1714982,25.5629376 L70.6462646,25.3169566 L70.1021809,25.0687714 L69.5400105,24.8208519 L68.960517,24.5756678 C65.2371469,23.0367113 60.5174381,21.8109323 55.6741929,23.7216778 C47.8995097,26.7889272 52.0669688,34.9962377 56.875,33.7481188 C59.9981655,32.937375 60.995587,31.2579592 59.8672643,28.7098714 L59.7737699,28.5069018 L68.0570666,28.5069018 C69.1058901,28.5069018 70.2878124,28.7408383 71.4753505,29.1098649 L71.950363,29.264446 C72.029481,29.2913322 72.1085483,29.3187603 72.1875273,29.3467009 L72.6600388,29.5202605 L73.1286166,29.7047152 L73.5914475,29.8986592 C73.6680063,29.9316959 73.7442502,29.9650693 73.8201413,29.9987503 L74.2709524,30.2042923 L74.7114839,30.4158089 L75.1399228,30.6318945 L75.5544559,30.8511431 L75.9532702,31.072149 C76.0183286,31.1090517 76.0826565,31.145969 76.1462161,31.1828717 L76.5180525,31.4038776 L76.8696373,31.6231262 C76.9264464,31.6594431 76.9823362,31.6956282 77.0372688,31.7316522 L77.3550766,31.9456291 L77.6481002,32.1543341 L77.9145262,32.3563615 C77.9566134,32.3893982 77.9975168,32.422098 78.0371986,32.4544318 L78.260329,32.6438068 C78.9878651,33.2896033 79.1433842,33.7481188 78.3770722,33.7481188 L78.2193454,33.7489555 L77.871954,33.7556486 L77.2710222,33.778238 L76.5742769,33.815887 L75.781718,33.8685956 L74.2478674,33.9899091 L73.1998057,34.0827766 L72.0559304,34.1907038 L69.480739,34.4517368 L67.0419825,34.7152798 C63.6979634,39.513898 58.9089535,40.7135525 52.6749527,38.3142435 C46.440952,35.9149344 41.263723,32.1729359 37.1432658,27.0882481 C42.5732808,26.175641 47.0182586,23.873391 50.4781993,20.1814979 L50.8099572,19.8198798 Z M61.4572613,29.83321 C61.8464004,32.2829675 60.3292778,34.0911946 57.176515,34.9096216 C54.2154972,35.6782735 51.2876927,33.690442 50.4049323,30.6920746 C49.4470978,27.4387122 51.1610322,24.2121884 55.2338048,22.605408 C60.0273486,20.7142706 64.6953714,21.3872297 70.2274056,23.811555 L70.9006565,24.1148161 L74.113774,25.6314519 L74.6497023,25.8758597 L74.8805749,25.9749059 C76.9268572,26.7978318 78.6899934,27.6479345 80.1715094,28.5282767 L80.618,28.801 L86.011,28.511 L85.8931376,28.4667705 C84.7933906,28.032153 83.711236,27.5395781 82.6468199,26.9891062 L81.3852391,26.3179652 L80.7036283,25.9636069 L79.5811736,25.3963958 L78.7701737,24.9962497 L77.9122126,24.579921 L76.5432118,23.9277511 L74.5790838,23.0129256 L72.9822537,22.2839804 L70.8071477,21.309821 L68.7033431,20.3868525 L66.7816176,19.5617815 L65.3991884,18.9827017 L64.4827536,18.6099036 L63.770329,18.3325118 L62.8195693,17.9838993 L62.4034007,17.8393082 C58.7791172,16.6186357 55.8012315,16.8383143 52.7569167,19.5648749 C52.4902608,19.8036983 52.2258928,20.0613354 51.9639125,20.3382989 L51.7027318,20.6217236 C48.5705408,24.1091116 44.6391184,26.4759621 39.9356035,27.7154962 L39.38,27.854 L39.7248118,28.2314454 C43.2738576,32.0423429 47.5305751,34.9489148 52.5055369,36.957594 L53.1059806,37.1943261 C58.7341918,39.3604821 62.8796808,38.3921488 65.8788802,34.279713 L66.0574593,34.0291939 L66.3688036,33.5824194 L68.6806394,33.3298604 L70.8317911,33.1059446 L72.7442004,32.9197412 L74.3987985,32.772903 L75.2405494,32.705486 L76.224,32.635 L76.1336983,32.5774555 C75.9913465,32.487689 75.8426084,32.3967876 75.6883794,32.3054811 L75.4530295,32.168309 C73.047951,30.7881238 70.2973817,29.8001092 68.3323235,29.7131413 L68.0570666,29.7069018 L61.434,29.706 L61.4572613,29.83321 Z" id="路径-121" fill="url(#linearGradient-11)" fill-rule="nonzero"></path>
                </g>
            </g>
        </g>
    </g>
</svg>